<?xml version="1.0" standalone="no"?>
<!DOCTYPE svg PUBLIC "-//W3C//DTD SVG 20010904//EN"
 "http://www.w3.org/TR/2001/REC-SVG-20010904/DTD/svg10.dtd">
<svg version="1.0" xmlns="http://www.w3.org/2000/svg"
 width="318.000000pt" height="318.000000pt" viewBox="0 0 318.000000 318.000000"
 preserveAspectRatio="xMidYMid meet">
<metadata>
Created by potrace 1.14, written by Peter Selinger 2001-2017
</metadata>
<g transform="translate(0.000000,318.000000) scale(0.100000,-0.100000)"
fill="#000000" stroke="none">
<path d="M1449 3176 c-2 -2 -29 -6 -59 -10 -244 -27 -556 -151 -740 -293 -121
-94 -222 -191 -311 -301 -91 -110 -238 -388 -264 -498 -3 -10 -16 -62 -29
-115 -35 -141 -37 -158 -40 -339 -3 -150 2 -208 29 -365 12 -69 81 -266 124
-357 75 -156 217 -352 331 -455 19 -17 53 -48 75 -68 22 -20 83 -65 135 -100
195 -130 354 -196 592 -246 82 -18 139 -22 278 -23 170 -1 216 2 329 24 60 11
185 46 216 60 11 5 31 12 45 15 51 14 274 132 335 177 233 174 376 337 503
569 52 98 118 274 138 369 3 14 10 45 15 70 33 144 33 432 0 597 -34 175 -109
375 -195 518 -85 141 -247 328 -371 426 -200 159 -483 287 -715 324 -25 4 -54
10 -65 12 -24 6 -351 14 -356 9z"/>
</g>
</svg>
